<svg xmlns="http://www.w3.org/2000/svg" width="1080" height="1080" viewBox="0 0 1080 1080">
  <g id="Rectángulo_23" data-name="Rectángulo 23" fill="#c6c6c6" stroke="#707070" stroke-width="1">
    <rect width="1080" height="1080" rx="79" stroke="none"/>
    <rect x="0.5" y="0.5" width="1079" height="1079" rx="78.5" fill="none"/>
  </g>
  <path id="hand-pointer" d="M634.963,397.3V389.35c0-47.359-34.724-85.886-77.4-85.886a70.323,70.323,0,0,0-27.386,5.569c-7.241-39.076-38.484-68.552-75.815-68.552a70.318,70.318,0,0,0-28.693,6.146c-9.367-36.065-40.476-63.4-76.228-63.4a69.189,69.189,0,0,0-27.52,5.787V85.886c0-47.36-34.724-85.886-77.4-85.886s-77.4,38.527-77.4,85.886V338.807c-13.547-19.2-29.836-35.927-48.742-44.55-21.1-9.619-43.3-8.47-64.216,3.329C15.691,319.29-.167,371.6,18.8,414.193l96.15,215.91c2.718,5.924,67.876,145.083,185.842,145.083H438.4c108.5,0,196.768-98.46,196.768-219.51L635.059,397.3h-.1ZM438.4,717.928H300.8c-84.976,0-137.915-109.7-139.824-113.736L65.066,388.827c-6.619-14.86-1.135-32.518,12.484-40.2,7.506-4.237,14.039-4.668,21.184-1.42,28.487,12.959,56.451,75.412,67.377,111.709l8.291,27.709,44.318-17.4V85.886c0-15.788,11.572-28.629,25.8-28.629s25.8,12.841,25.8,28.629V416.071h52.069V271.018c0-15.982,12.893-30.537,27.053-30.537,14.662,0,27.52,13.379,27.52,28.629v156.5h51.6V326.367c0-15.788,11.572-28.629,25.8-28.629s25.8,12.841,25.8,28.629V452.334h51.6V389.35c0-15.788,11.572-28.629,25.8-28.629s25.8,12.841,25.8,28.629V430.3h.12l.086,125.4C583.569,645.154,518.445,717.928,438.4,717.928Z" transform="translate(217.023 152.407)"/>
</svg>
